# xmcd
# 
# Track frame offsets:
#	183
#	13985
#	27523
#	53430
#	69570
#	85738
#	101695
#	115518
#	138215
#	157440
#
# Disc length: 2449 seconds
#
# Revision: 1
# Processed by: cddbd v1.4PL0 Copyright (c) Steve Scherf et al.
# Submitted via: Audio-CD-Archiv 2.10.446
#
DISCID=80098f0a
DTITLE=Johnny Mars - Life On Mars
DYEAR=1900
DGENRE=blues
TTITLE0=Hot Lips Boogie
TTITLE1=Don't Start Me Talkin'
TTITLE2=Desert Island
TTITLE3=Standing in Line
TTITLE4=I Can't Take a Jealous Woman
TTITLE5=Born Under a Bad Sign
TTITLE6=Get on Up
TTITLE7=Steal Away
TTITLE8=Back Door Man
TTITLE9=Keep on Swinging
EXTD=
EXTT0=
EXTT1=
EXTT2=
EXTT3=
EXTT4=
EXTT5=
EXTT6=
EXTT7=
EXTT8=
EXTT9=
PLAYORDER=
